<?xml version="1.0" encoding="utf-8"?>
<!-- Generator: Adobe Illustrator 22.0.0, SVG Export Plug-In . SVG Version: 6.00 Build 0)  -->
<svg version="1.1" id="Capa_1" xmlns="http://www.w3.org/2000/svg" xmlns:xlink="http://www.w3.org/1999/xlink" x="0px" y="0px"
	 viewBox="0 0 708 190" style="enable-background:new 0 0 708 190;" xml:space="preserve">
<style type="text/css">
	.st0{fill:#6108A0;}
	.st1{fill:#BA7CD8;}
	.st2{fill:#1A1A1A;}
</style>
<g>
	<rect x="-323.5" y="-536.6" class="st0" width="78" height="8.4"/>
	<rect x="-323.5" y="-558.5" class="st0" width="78" height="8.4"/>
	<rect x="-323.5" y="-580.4" class="st0" width="78" height="8.4"/>
</g>
<g>
	<polygon class="st1" points="-217,-512.9 -142.7,-587.2 -128.3,-587.2 -202.6,-512.9 	"/>
</g>
<g>
	<polygon class="st1" points="-202.5,-587.2 -128.2,-512.9 -142.7,-512.9 -217,-587.3 	"/>
</g>
<g>
	<path class="st2" d="M36,1.3h37.5v187.3H36V1.3z"/>
	<path class="st2" d="M223.4,1.3v187.3h-37.5L148.4,95v93.7H111V1.3h37.5L185.9,95V1.3H223.4z"/>
	<path class="st2" d="M485.7,1.3l-37.5,74.9v112.4h-37.5V76.3l-37.4-75h37.5l18.7,37.5l18.7-37.5C448.2,1.3,485.7,1.3,485.7,1.3z"/>
	<path class="st2" d="M635.5,1.3H673v131.1h-37.5V1.3z M635.5,151.2H673v37.5h-37.5V151.2z"/>
	<g>
		<path class="st2" d="M544.7,101.9c-4,0-7.2,3.2-7.2,7.2s3.2,7.2,7.2,7.2s7.2-3.2,7.2-7.2S548.7,101.9,544.7,101.9z"/>
		<path class="st2" d="M560.6,1.3h-37.5l-37.5,187.3h37.5l7.5-37.5h22.5l7.5,37.5h37.5L560.6,1.3z M540.9,121.7
			c-17.3,0-22.9-12.2-22.9-12.2s6.4-12.6,22.1-12.9v-7.3h3.9v7.4c2.4,0.1,4.6,0.4,6.5,0.9l2.4-7l3.7,1.3l-2.3,6.7
			c1.9,0.7,3.5,1.5,4.9,2.3l3.4-6.3l3.4,1.9l-3.7,6.8c3.2,3.1,3.9,6.2,3.9,6.2S558.2,121.7,540.9,121.7z"/>
	</g>
	<g>
		<path class="st2" d="M335.8,1.3h-37.5l-37.5,187.3h37.5l7.5-37.5h22.5l7.5,37.5h37.5L335.8,1.3z M318.2,121.7
			c-17.3,0-25.2-12.2-25.2-12.2s0.6-3,3.9-6.2l-3.7-6.8l3.4-1.9l3.4,6.3c1.4-0.8,2.9-1.6,4.9-2.3l-2.3-6.7l3.7-1.3l2.4,7
			c1.9-0.4,4.1-0.7,6.5-0.9v-7.4h3.9v7.3c15.6,0.3,22.1,12.9,22.1,12.9S335.5,121.7,318.2,121.7z"/>
		<path class="st2" d="M314.4,101.9c-4,0-7.2,3.2-7.2,7.2s3.2,7.2,7.2,7.2s7.2-3.2,7.2-7.2S318.4,101.9,314.4,101.9z"/>
	</g>
</g>
<g>
	<path class="st2" d="M35.9-192.9h32.5v162.6H35.9V-192.9z"/>
	<path class="st2" d="M198.5-192.9v162.6H166l-32.5-81.3v81.3h-32.5v-162.6h32.5l32.5,81.3v-81.3H198.5z"/>
	<path class="st2" d="M426.2-192.9l-32.5,65.1v97.6h-32.5v-97.6l-32.5-65.1h32.5l16.3,32.5l16.3-32.5H426.2z"/>
	<path class="st2" d="M556.3-192.9h32.5v113.8h-32.5V-192.9z M556.3-62.8h32.5v32.5h-32.5V-62.8z"/>
	<g>
		<path class="st2" d="M277.5-101.6c-3.5,0-6.3,2.8-6.3,6.3s2.8,6.3,6.3,6.3c3.5,0,6.3-2.8,6.3-6.3S281-101.6,277.5-101.6z"/>
		<path class="st2" d="M296.1-192.9h-32.5L231-30.3h32.5l6.5-32.5h19.5l6.5,32.5h32.5L296.1-192.9z M280.8-84.3
			c-15.2,0-22-10.7-22-10.7s0.5-2.7,3.4-5.4l-3.2-6l3-1.6l3,5.5c1.2-0.7,2.6-1.4,4.2-2l-2-5.9l3.2-1.1l2.1,6.1
			c1.7-0.4,3.5-0.6,5.7-0.8v-6.5h3.4v6.4C295.2-106,300.8-95,300.8-95S296-84.3,280.8-84.3z"/>
	</g>
	<g>
		<path class="st2" d="M477.6-101.6c-3.4,0-6.2,2.8-6.2,6.2c0,3.4,2.8,6.2,6.2,6.2c3.4,0,6.2-2.8,6.2-6.2
			C483.8-98.8,481-101.6,477.6-101.6z"/>
		<path class="st2" d="M491.2-192.9h-32.5L426.2-30.3h32.5l6.5-32.5h19.5l6.5,32.5h32.5L491.2-192.9z M474.4-84.7
			c-14.8,0-19.5-10.4-19.5-10.4s5.5-10.7,18.8-11v-6.3h3.3v6.3c2.1,0.1,3.9,0.4,5.5,0.7l2-6l3.1,1.1l-2,5.7c1.6,0.6,3,1.2,4.1,2
			l2.9-5.4l2.9,1.6l-3.2,5.8c2.8,2.7,3.3,5.3,3.3,5.3S489.2-84.7,474.4-84.7z"/>
	</g>
</g>
</svg>
